<mxfile host="www.draw.io" modified="2019-11-28T02:37:59.352Z" agent="Mozilla/5.0 (Windows NT 10.0; Win64; x64) AppleWebKit/537.36 (KHTML, like Gecko) Chrome/78.0.3904.108 Safari/537.36" etag="lO-X3y8MAj_CRnotUDdi" version="12.3.2" type="github" pages="1">
  <diagram id="psnQQy6LqLvKlwlGEEYT" name="第 1 页">
    <mxGraphModel dx="1422" dy="762" grid="1" gridSize="10" guides="1" tooltips="1" connect="1" arrows="1" fold="1" page="1" pageScale="1" pageWidth="827" pageHeight="1169" math="0" shadow="0">
      <root>
        <mxCell id="0"/>
        <mxCell id="1" parent="0"/>
        <mxCell id="Q6flnoo-UCcCWJMEGhwK-1" value="" style="rounded=0;whiteSpace=wrap;html=1;" vertex="1" parent="1">
          <mxGeometry x="30" y="280" width="410" height="160" as="geometry"/>
        </mxCell>
        <mxCell id="Q6flnoo-UCcCWJMEGhwK-15" style="edgeStyle=orthogonalEdgeStyle;rounded=0;orthogonalLoop=1;jettySize=auto;html=1;exitX=0.5;exitY=0;exitDx=0;exitDy=0;entryX=0.25;entryY=0;entryDx=0;entryDy=0;" edge="1" parent="1" source="Q6flnoo-UCcCWJMEGhwK-2" target="Q6flnoo-UCcCWJMEGhwK-3">
          <mxGeometry relative="1" as="geometry"/>
        </mxCell>
        <mxCell id="Q6flnoo-UCcCWJMEGhwK-2" value="内存数据" style="rounded=0;whiteSpace=wrap;html=1;" vertex="1" parent="1">
          <mxGeometry x="50" y="340" width="30" height="40" as="geometry"/>
        </mxCell>
        <mxCell id="Q6flnoo-UCcCWJMEGhwK-5" style="edgeStyle=orthogonalEdgeStyle;rounded=0;orthogonalLoop=1;jettySize=auto;html=1;entryX=0;entryY=0.5;entryDx=0;entryDy=0;" edge="1" parent="1" source="Q6flnoo-UCcCWJMEGhwK-3" target="Q6flnoo-UCcCWJMEGhwK-4">
          <mxGeometry relative="1" as="geometry"/>
        </mxCell>
        <mxCell id="Q6flnoo-UCcCWJMEGhwK-14" style="edgeStyle=orthogonalEdgeStyle;rounded=0;orthogonalLoop=1;jettySize=auto;html=1;exitX=0.25;exitY=1;exitDx=0;exitDy=0;entryX=0.5;entryY=1;entryDx=0;entryDy=0;" edge="1" parent="1" source="Q6flnoo-UCcCWJMEGhwK-3" target="Q6flnoo-UCcCWJMEGhwK-2">
          <mxGeometry relative="1" as="geometry"/>
        </mxCell>
        <mxCell id="Q6flnoo-UCcCWJMEGhwK-3" value="Buffer" style="rounded=0;whiteSpace=wrap;html=1;" vertex="1" parent="1">
          <mxGeometry x="120" y="335" width="115" height="50" as="geometry"/>
        </mxCell>
        <mxCell id="Q6flnoo-UCcCWJMEGhwK-8" style="edgeStyle=orthogonalEdgeStyle;rounded=0;orthogonalLoop=1;jettySize=auto;html=1;exitX=1;exitY=0.25;exitDx=0;exitDy=0;entryX=0;entryY=0.5;entryDx=0;entryDy=0;" edge="1" parent="1" source="Q6flnoo-UCcCWJMEGhwK-4" target="Q6flnoo-UCcCWJMEGhwK-6">
          <mxGeometry relative="1" as="geometry"/>
        </mxCell>
        <mxCell id="Q6flnoo-UCcCWJMEGhwK-9" style="edgeStyle=orthogonalEdgeStyle;rounded=0;orthogonalLoop=1;jettySize=auto;html=1;exitX=1;exitY=0.75;exitDx=0;exitDy=0;entryX=0;entryY=0.5;entryDx=0;entryDy=0;" edge="1" parent="1" source="Q6flnoo-UCcCWJMEGhwK-4" target="Q6flnoo-UCcCWJMEGhwK-7">
          <mxGeometry relative="1" as="geometry"/>
        </mxCell>
        <mxCell id="Q6flnoo-UCcCWJMEGhwK-12" style="edgeStyle=orthogonalEdgeStyle;rounded=0;orthogonalLoop=1;jettySize=auto;html=1;exitX=0.25;exitY=1;exitDx=0;exitDy=0;entryX=0.5;entryY=1;entryDx=0;entryDy=0;" edge="1" parent="1" source="Q6flnoo-UCcCWJMEGhwK-4" target="Q6flnoo-UCcCWJMEGhwK-3">
          <mxGeometry relative="1" as="geometry"/>
        </mxCell>
        <mxCell id="Q6flnoo-UCcCWJMEGhwK-13" style="edgeStyle=orthogonalEdgeStyle;rounded=0;orthogonalLoop=1;jettySize=auto;html=1;exitX=0.25;exitY=0;exitDx=0;exitDy=0;entryX=0.5;entryY=0;entryDx=0;entryDy=0;" edge="1" parent="1" source="Q6flnoo-UCcCWJMEGhwK-4" target="Q6flnoo-UCcCWJMEGhwK-3">
          <mxGeometry relative="1" as="geometry"/>
        </mxCell>
        <mxCell id="Q6flnoo-UCcCWJMEGhwK-4" value="Channel" style="rounded=0;whiteSpace=wrap;html=1;fillColor=#fff2cc;strokeColor=#d6b656;" vertex="1" parent="1">
          <mxGeometry x="285" y="335" width="115" height="50" as="geometry"/>
        </mxCell>
        <mxCell id="Q6flnoo-UCcCWJMEGhwK-10" style="edgeStyle=orthogonalEdgeStyle;rounded=0;orthogonalLoop=1;jettySize=auto;html=1;entryX=0.5;entryY=0;entryDx=0;entryDy=0;" edge="1" parent="1" source="Q6flnoo-UCcCWJMEGhwK-6" target="Q6flnoo-UCcCWJMEGhwK-4">
          <mxGeometry relative="1" as="geometry">
            <Array as="points">
              <mxPoint x="343" y="300"/>
            </Array>
          </mxGeometry>
        </mxCell>
        <mxCell id="Q6flnoo-UCcCWJMEGhwK-6" value="磁盘文件" style="rounded=0;whiteSpace=wrap;html=1;" vertex="1" parent="1">
          <mxGeometry x="460" y="290" width="115" height="50" as="geometry"/>
        </mxCell>
        <mxCell id="Q6flnoo-UCcCWJMEGhwK-11" style="edgeStyle=orthogonalEdgeStyle;rounded=0;orthogonalLoop=1;jettySize=auto;html=1;entryX=0.5;entryY=1;entryDx=0;entryDy=0;" edge="1" parent="1" source="Q6flnoo-UCcCWJMEGhwK-7" target="Q6flnoo-UCcCWJMEGhwK-4">
          <mxGeometry relative="1" as="geometry">
            <Array as="points">
              <mxPoint x="343" y="420"/>
            </Array>
          </mxGeometry>
        </mxCell>
        <mxCell id="Q6flnoo-UCcCWJMEGhwK-7" value="网络Socker" style="rounded=0;whiteSpace=wrap;html=1;" vertex="1" parent="1">
          <mxGeometry x="460" y="380" width="115" height="50" as="geometry"/>
        </mxCell>
      </root>
    </mxGraphModel>
  </diagram>
</mxfile>
